<mxfile host="Electron" modified="2024-06-09T14:05:46.788Z" agent="Mozilla/5.0 (X11; Linux x86_64) AppleWebKit/537.36 (KHTML, like Gecko) draw.io/24.4.8 Chrome/124.0.6367.207 Electron/30.0.6 Safari/537.36" etag="qtH4ISNtfk3VgU7BsqL5" version="24.3.1" type="device">
  <diagram name="Page-1" id="ZZ32rN_WbxpM0cP2blAU">
    <mxGraphModel dx="812" dy="456" grid="1" gridSize="10" guides="1" tooltips="1" connect="1" arrows="1" fold="1" page="1" pageScale="1" pageWidth="1600" pageHeight="900" math="0" shadow="0">
      <root>
        <mxCell id="0" />
        <mxCell id="1" parent="0" />
        <mxCell id="jZMmNIOD5x5WgZILFevg-5" value="rest" style="edgeStyle=orthogonalEdgeStyle;rounded=0;orthogonalLoop=1;jettySize=auto;html=1;entryX=0.5;entryY=0;entryDx=0;entryDy=0;curved=1;startArrow=classic;startFill=1;exitX=0.5;exitY=1;exitDx=0;exitDy=0;" parent="1" source="jZMmNIOD5x5WgZILFevg-1" target="jZMmNIOD5x5WgZILFevg-4" edge="1">
          <mxGeometry x="0.1816" relative="1" as="geometry">
            <mxPoint as="offset" />
          </mxGeometry>
        </mxCell>
        <mxCell id="jZMmNIOD5x5WgZILFevg-1" value="weather system" style="ellipse;whiteSpace=wrap;html=1;" parent="1" vertex="1">
          <mxGeometry x="740" y="410" width="120" height="80" as="geometry" />
        </mxCell>
        <mxCell id="jZMmNIOD5x5WgZILFevg-3" value="rest" style="edgeStyle=orthogonalEdgeStyle;rounded=0;orthogonalLoop=1;jettySize=auto;html=1;entryX=0;entryY=0.5;entryDx=0;entryDy=0;curved=1;startArrow=classic;startFill=1;" parent="1" source="jZMmNIOD5x5WgZILFevg-2" target="jZMmNIOD5x5WgZILFevg-1" edge="1">
          <mxGeometry x="0.087" y="-5" relative="1" as="geometry">
            <mxPoint as="offset" />
          </mxGeometry>
        </mxCell>
        <mxCell id="jZMmNIOD5x5WgZILFevg-2" value="User" style="rounded=1;whiteSpace=wrap;html=1;" parent="1" vertex="1">
          <mxGeometry x="470" y="500" width="120" height="60" as="geometry" />
        </mxCell>
        <mxCell id="jZMmNIOD5x5WgZILFevg-4" value="External Api" style="rounded=1;whiteSpace=wrap;html=1;" parent="1" vertex="1">
          <mxGeometry x="880" y="570" width="120" height="60" as="geometry" />
        </mxCell>
        <mxCell id="jZMmNIOD5x5WgZILFevg-8" value="Socket" style="edgeStyle=orthogonalEdgeStyle;rounded=0;orthogonalLoop=1;jettySize=auto;html=1;exitX=0;exitY=0.7;exitDx=0;exitDy=0;entryX=0;entryY=0;entryDx=0;entryDy=0;curved=1;startArrow=classic;startFill=1;" parent="1" source="jZMmNIOD5x5WgZILFevg-6" target="jZMmNIOD5x5WgZILFevg-1" edge="1">
          <mxGeometry x="0.0656" y="2" relative="1" as="geometry">
            <mxPoint as="offset" />
          </mxGeometry>
        </mxCell>
        <mxCell id="jZMmNIOD5x5WgZILFevg-6" value="Redis DB" style="shape=datastore;whiteSpace=wrap;html=1;" parent="1" vertex="1">
          <mxGeometry x="790" y="280" width="60" height="60" as="geometry" />
        </mxCell>
      </root>
    </mxGraphModel>
  </diagram>
</mxfile>
